<?xml version="1.0" encoding="utf-8"?>
<!-- Generator: Adobe Illustrator 21.1.0, SVG Export Plug-In . SVG Version: 6.00 Build 0)  -->
<svg version="1.1" id="Laag_1" xmlns="http://www.w3.org/2000/svg" xmlns:xlink="http://www.w3.org/1999/xlink" x="0px" y="0px"
	 viewBox="0 0 2436 1132.1" style="enable-background:new 0 0 2436 1132.1;" xml:space="preserve">
<style type="text/css">
	.st0{fill:#FFFFFF;}
	.st1{fill:#DA291C;}
	.st2{fill:#2D2926;}
</style>
<g id="NAPOLEON_GAMES">
	<title>NAPOLEON_GAMES-horizontal-neg-rgb</title>
	<path id="NAPOLEON_3_" class="st0" d="M1183.4,641.6l-95.8-86.1v82.9h-36.7V477.7l4.9-0.9l94.4,85.3v-82.3h36.8V641L1183.4,641.6z
		 M1378.4,638.6l-74.7-160h-4.9l-74.7,160h37.5l11.9-28.8h54.8l11.9,28.8H1378.4z M1316.4,581.7H1285l15.8-38.1L1316.4,581.7z
		 M1529.9,535.3c0-8.1-1.5-15.5-4.5-22.5c-3-6.8-7.6-12.9-13.5-17.9c-5.9-5-13.4-9.1-22.1-11.9c-8.7-2.9-18.9-4.3-30.4-4.3
		c-13.1,0-27.9,0.9-44.2,2.6v157.2h36.8v-47.4c2.4,0.1,4.7,0.3,6.7,0.4c2,0.1,4.3,0.1,6.9,0.1c10.6,0,19.8-1.4,27.9-4.3
		c7.9-2.8,14.8-6.7,20.2-11.7c5.4-4.9,9.5-10.9,12.2-17.8C1528.5,551,1529.9,543.5,1529.9,535.3 M1492.3,535.9
		c0,7.8-2.4,13.8-7.3,17.8c-4.8,4-12.1,6.1-22,6.1c-1.8,0-3.4,0-4.9-0.1c-1.5-0.1-3.5-0.3-6.2-0.4v-45.2c2.9-0.3,5.3-0.5,7.2-0.6
		c1.9-0.1,4-0.3,6.4-0.3c9.1,0,15.8,2.1,20.2,6.4C1490.2,524,1492.3,529.5,1492.3,535.9 M1734,559.4c0-11.7-1.9-22.6-5.7-32.6
		c-3.8-10-9.2-18.7-16.3-26c-7.1-7.3-15.5-13-25.4-17.2s-20.9-6.3-33.3-6.3c-12.2,0-23.5,2.1-33.6,6.3c-10.1,4.2-18.7,9.8-25.9,17.2
		c-7.2,7.3-12.7,16-16.7,26c-3.9,10.1-5.9,20.9-5.9,32.6c0,11.7,1.9,22.5,5.7,32.4s9.1,18.5,16.2,25.9c6.9,7.3,15.5,13,25.5,17.2
		c10,4.2,21.1,6.3,33.3,6.3c12.2,0,23.5-2.1,33.4-6.3c10.1-4.2,18.7-10,25.9-17.2c7.2-7.3,12.9-15.9,16.8-25.9
		C1732.1,581.8,1734,571,1734,559.4 M1694.6,559.4c0,7.1-1,13.6-3,19.6s-4.9,11.2-8.6,15.6c-3.7,4.4-8.1,7.8-13.2,10.2
		c-5.2,2.4-10.9,3.7-17.3,3.7c-6.2,0-11.9-1.3-17.2-3.7c-5.2-2.4-9.6-5.9-13.2-10.2c-3.7-4.4-6.6-9.6-8.6-15.6c-2-6.1-3-12.5-3-19.6
		c0-7.2,1-13.9,3-19.8c2-6.1,4.9-11.1,8.6-15.5c3.7-4.3,8.1-7.7,13.2-10.2c5.2-2.4,10.9-3.7,17.2-3.7s12.1,1.3,17.3,3.7
		c5.2,2.4,9.5,5.8,13.2,10.2c3.7,4.3,6.6,9.5,8.6,15.5C1693.6,545.5,1694.6,552.2,1694.6,559.4 M1885.4,638.6V605h-63.7V479.9h-36.8
		v158.7H1885.4z M2028.7,638.6V605H1965v-31h58V542h-58v-28.4h63.7v-33.8h-100.4v158.7L2028.7,638.6L2028.7,638.6z M2240.1,559.4
		c0-11.7-1.9-22.6-5.8-32.6c-3.8-10-9.2-18.7-16.3-26c-7.1-7.3-15.5-13-25.4-17.2s-20.9-6.3-33.3-6.3c-12.2,0-23.5,2.1-33.6,6.3
		c-10.1,4.2-18.7,9.8-25.9,17.2s-12.7,16-16.7,26c-3.9,10.1-5.9,20.9-5.9,32.6c0,11.7,1.9,22.5,5.7,32.4c3.8,10,9.1,18.5,16.2,25.9
		c7.1,7.3,15.5,13,25.5,17.2c10,4.2,21.1,6.3,33.3,6.3c12.2,0,23.5-2.1,33.4-6.3c10.1-4.2,18.7-10,25.9-17.2
		c7.2-7.3,12.9-15.9,16.8-25.9C2238.2,581.8,2240.1,571,2240.1,559.4 M2200.7,559.4c0,7.1-1,13.6-3,19.6c-2,5.9-4.9,11.2-8.6,15.6
		c-3.7,4.4-8.1,7.8-13.2,10.2c-5.2,2.4-10.9,3.7-17.3,3.7c-6.2,0-11.9-1.3-17.2-3.7c-5.2-2.4-9.6-5.9-13.4-10.2
		c-3.7-4.4-6.6-9.6-8.6-15.6c-2-6.1-3-12.5-3-19.6c0-7.2,1-13.9,3-19.8c2-6.1,4.9-11.1,8.6-15.5c3.7-4.3,8.1-7.7,13.4-10.2
		c5.2-2.4,10.9-3.7,17.2-3.7c6.3,0,12.1,1.3,17.3,3.7c5.2,2.4,9.5,5.8,13.2,10.2c3.7,4.3,6.6,9.5,8.6,15.5
		C2199.7,545.5,2200.7,552.2,2200.7,559.4 M2427.2,641V479.9h-36.8v82.3l-94.4-85.3l-4.9,0.9v160.9h36.8v-82.9l95.8,86.1L2427.2,641
		z"/>
	<path class="st1" d="M211.5,603.5L17.6,462.3c-7.6-5.6-6.2-10.1,3.3-10.1h334.6c-9.6,5-18.2,11.1-26.2,17.5
		c-9.2,7.3-16.5,16.7-26.9,23.8c-10.2,7.2-21.8,14.1-31.9,20.9c-19.6,13.4-33.8,35.1-45.7,57.5C219.5,582.3,215.1,592.7,211.5,603.5
		z M267.7,946.5c-4.4-14.9-8.6-25-16.9-48.5c-2.1-6.1-4.3-11.4-6.2-16.3l-46.3,142.3c-2.9,9,1.3,12.2,9.3,7.4l73.7-44.8
		C280.2,983.6,270.5,956,267.7,946.5z M380.1,837c-13.6-32.6-31-58.8-40.3-84.2c-5.8-16-8.6-33.6-8.6-33.6c-10.5-4-21.8-3.8-33.1-2
		l-41.1,126.3C297.5,847.6,343.4,850.7,380.1,837z M984.2,452.2H637.5c-9.5,0-19.6-7.3-22.5-16.3L507.8,106.5c-2.9-9-7.7-9-10.6,0
		L389.3,436c-0.4,1.1-0.9,2.3-1.4,3.3c40.6-12.1,90.1-12.2,151,1.6c29.1,6.7,60.7,20.2,82.7,34.3c23,14.9,42.7,33.7,61.7,52.4
		c9,8.7,18.5,18.5,27.5,28.1c8.6,9.2,17.3,18.3,26.8,25.9c11.5,9.3,30.5,21.1,41.8,32.2l208.3-151.4
		C995.1,456.8,993.6,452.2,984.2,452.2z M698.4,692.6c-2.9-9,0.9-20.8,8.6-26.4l35.3-25.6c-1.9,0-3.8,0-5.4,0.1
		c-49.3,3-102.8,12.7-146.1,20.8c0.4,32.8-14.8,50.2-25.9,71.5c4.4,2.4,10.3-2.1,16.9-1c3.7,10.6,0.3,28.3,5.9,36.7
		c24.5-5.2,57.9-12.6,84.2-7.2c1.8,0.4,2.6,0.8,1.6,2.4l-33.2,50.6c60.6-8.5,96.2,116.1,93.9,179.3l62.7,37.6
		c8.1,4.8,12.4,1.5,9.3-7.4L698.4,692.6z M535,542.7c-8.8-7.6-23-5.7-31.5,4.4c-8.5,10.1-7.8,24.1,1.4,31.2c9,6.9,22.7,4.7,30.8-5
		C543.8,563.7,543.5,550,535,542.7L535,542.7z"/>
	<path id="black_3_" class="st2" d="M415.3,755.2c0.3,0.9,1.3,7.9-2.5,9.3c-8.6,3.2-27.9,1.4-31.2-7.7
		C390.6,762.4,413.8,749.7,415.3,755.2z M787.4,632.8c-6.9,12.1-34.4,6.9-50.7,7.9c-49.3,3-102.8,12.7-146.1,20.8
		c0.4,32.8-14.8,50.2-25.9,71.5c4.4,2.4,10.3-2.1,16.9-1c3.7,10.6,0.3,28.3,5.9,36.7c24.5-5.2,57.9-12.6,84.2-7.2
		c1.8,0.4,2.6,0.8,1.6,2.4l-33.2,50.6c60.6-8.5,96.2,116.1,93.9,179.3L514.8,862.3c-4-2.4-9.3-3.7-14.6-3.7l0,0l0,0l0,0l0,0
		c0-0.4,0-3.8,1-6.9c0.3-0.8,0.6-1.6,1.1-2.4c0.5-0.9,1-1.8,1.6-2.6c1.9-2.6,4.7-5.4,7.9-8.3c1.1-1,2.3-1.9,3.5-2.9
		c3-2.4,6.4-4.8,10.1-7.2c4.4-2.9,9.1-5.7,14-8.2c0.8-0.4,1.6-0.9,2.4-1.3c6.6-3.4,13.4-6.4,19.8-8.7c16.7-6.1,33.1-8.6,45.8-9.6
		c14.4-1,24-0.1,24-0.1c1-1.1,1.9-2.3,3-3.5c2-2.5,4.3-5.2,6.4-7.8c4.7-5.8,9.3-11.7,12.5-15.9c2.4-3.2,3.9-5.2,3.9-5.2l0,0l0,0
		c-32.8-0.1-61.6,6.2-86.8,15.9c-1.6,0.6-3.4,1.3-5,2c-4.9,2-9.8,4.2-14.5,6.6c-1.5,0.8-3.2,1.5-4.7,2.3c-3,1.5-6.2,3.2-9.1,4.8
		c-2.9,1.6-5.9,3.3-8.8,5s-5.7,3.5-8.5,5.3c-1.4,0.9-2.8,1.8-4.2,2.6c-6.8,4.5-13.4,9.1-19.7,13.8c4.2-8.6,10-17.2,9.8-21.7
		c0-0.5-0.1-0.9-0.3-1.3c-0.1-0.4-0.4-0.8-0.6-1c-1.1-1.1-3.5-1.4-7.7-0.6c-0.3-0.8-0.3-1.5-0.3-2.3c0.4-11.6,24.2-24.7,36.1-32.4
		c0.8-0.5,1.5-1,2.1-1.5c0.5-0.3,0.9-0.6,1.3-0.9c1.5-1.1,2.6-2,2.9-2.8c0.1-0.1,0.1-0.4,0.1-0.5c0-0.1,0-0.1,0-0.3
		c-2.1,0.5-4.3,1-6.6,1.6c-1.1,0.3-2.1,0.5-3.3,0.9c-2.3,0.6-4.4,1.1-6.7,1.8c-3.4,1-6.8,2-10.2,3.2c-2.3,0.8-4.5,1.5-6.8,2.4
		c-3.4,1.3-6.8,2.6-10.1,4c-4.4,2-8.8,4.2-13.2,6.7c-5.4,3.2-10.6,6.6-15.5,10.7c-3.9,3.3-7.7,6.8-11.2,10.7c-0.9,1-1.8,2-2.6,3
		c-2.5,3.2-5,6.4-7.3,10.1c-1.5,2.4-2.9,4.9-4.3,7.4c-4,7.7-5.6,16.3-5.6,24.9c0,5.8,0.8,11.5,2,16.9c0.5,2,1,4,1.5,5.9
		c1.8,5.7,3.9,10.9,6.3,15L281.2,986.6c-1-3-10.9-30.7-13.6-40.1c-4.4-14.9-8.6-25-16.9-48.5c-7.9-22.5-15.6-35.2-15-54.1
		c0-1,0.1-2.5,2.3-2.3c44.5,4.4,99.6,11.2,142.1-4.7c-13.6-32.6-31-58.8-40.3-84.2c-5.8-16-8.6-33.6-8.6-33.6
		c-21.7-8.5-46.6,1.9-68.5,4.9c-13.6,1.9-25,3.4-41.8,6.6c-11.1,2.1-22.7,5.9-35.1,10.9c-15.4,6.2-37.5,16.7-39.5,5.3
		c-3.2-18.5,12.6-32.7,24-44.3c11.1-11.4,25.6-29.1,29.8-44c0.3-0.9,1-3.2,1-3c3.2-32.8,10.6-58.3,23.8-83.5
		c11.7-22.5,26.1-44.2,45.7-57.4c10.1-6.8,21.7-13.8,31.9-20.9c10.2-7.2,17.7-16.5,26.9-23.8c9.3-7.4,19.3-14.3,30.8-19.8
		c45.3-21.8,103.2-26.4,178.8-9.1c29.1,6.7,60.7,20.2,82.7,34.3c23,14.9,42.7,33.7,61.7,52.4c9,8.7,18.5,18.5,27.5,28.1
		c8.6,9.2,17.3,18.3,26.8,25.9C755.9,596.6,794.1,618.2,787.4,632.8z M378.1,857c-30.7,3.2-51.1,11.7-125.3,0.9
		c0.8,3.9,3.7,13.5,4.9,16.9c0,0,38.2-0.3,56.9-2.3C348,869,360.8,867.6,378.1,857z M213.9,643.8c0,0,24.5-51.6,36.2-74.6
		c12.1-23.5,35.5-53.8,34.3-53.9c-7.9,4-38,31.4-52.7,63C222.4,598.4,214.1,629.5,213.9,643.8z M480.3,642.8
		c-10.2,0.4-16,9.1-22.3,11.7c-6.3,2.6-24.7,6.9-24.7,6.9c-3.5-4.9,13.8-19.7,15.1-27.5c-37.6-2.3-74.4,12.9-98.4,30.8
		c0,0-1.1,13.1,2.6,13.9c10.3,2,19.1-1.9,25.5-0.6c8.1,8.6,8.2,26.9-1.1,31.8c-1,0.6-3.3,0.3-3.3-3.3c0-3.9,0.9-8.3,0.9-8.3
		c-4.4,2.9-11,4.4-21.2-2.6c-4.9,5.3,2.6,9.1,2.3,12.7c-0.1,1.8-4.4,7.2-5.3,9.5c-7.6,19.6,10.5,50.6,21.1,72.8
		c9.5,19.9,15.6,45.2,32.3,53.1c3.7-0.6,22-2.4,22-2.4c-3.5-41.4,56-70.7,55.6-85s-17.8-5.3-28-6.6c0,0,0.9-7.9,10.2-12.9
		c15.1-7.9,22-16.9,15.1-25.7c-3.9-5.2-19.9-4.2-31.9-4.4c-1.8,0-4.2-0.9-2.3-2.5c1.5-1.3,3.8-2.5,7.2-2.9
		c10.3-1.1,13.5-0.8,18.9-8.5c0,0-7.4-3-19.1-2.9c-1.3,4.2-5.6,7.9-10.5,7.9c-5.6,0-10.2-4.7-11-9.5c-2.5-0.1-3.2-0.3-6.4,0.5
		c-5.3,1.1-4.9,10.5-7.2,10.6c-6.6,0.5-9.5-11.2-10.3-19.8c18.4-12.4,45.6-9.3,73.6-7.2C485.9,669,486,648.7,480.3,642.8z
		 M549.5,527.9c-16.7-14.1-43.3-10.6-59.3,8.3c-16,18.9-14.6,45.3,2.6,58.7c16.9,13,42.7,8.7,58-9.3
		C566.1,567.4,565.6,541.8,549.5,527.9z M767.1,620.1c-5.3-7.1-23.3-18.5-33.4-27c-6.1-5.2-18.4-16.5-24.1-22.2
		c-49.8-49.8-83.5-89-129.8-106.1c-32.6-12.1-79.4-26.6-133.3-23.8c-47.2,2.5-84.8,17.3-113.8,41.5c-40.1,33.4-62.1,83.3-87.3,130.3
		c-30.8,57.5-52.4,79.7-65.6,92.5c-9.2,8.8-24.5,22.8-25.4,36.7c4.8,1.6,24.7-10,40.8-21.8c12.5-9.2,25.4-20.1,36.8-30.3
		c27.9-24.9,49.5-71,59.6-85c10.3-14.3,32.8-58.9,60.6-86.4c13.4-13.1,48.8-29.7,76.5-31.8c14.1-1,34.6-1.5,53.4-0.6
		c19.2,0.9,65.7,6.6,98.9,26.6c33.2,20.2,46.2,36.7,65.2,55.1C676.7,597.5,720.3,631.9,767.1,620.1z M381.3,779.2
		c0,0,2.3,7.1,13.2,9.1c14.1,2.4,32.7-4.8,36-5.2c-9.1,7.8-20.6,17-33.9,13.8c0,0-4.7,3.9,0.3,10c4.7,5.6,15.9,4.4,21.8,1.9
		c0.5-2.9-2.9-6.8,1.5-7.7c8.2-1.5,20.7-14.9,23.3-17.9c0,0,2.9-11.1,0.8-12.1C424.8,777,406.1,783,381.3,779.2z"/>
	<path id="white_2_" class="st0" d="M378.1,857c-17.3,10.7-30.3,12-63.6,15.5c-18.7,2-56.9,2.3-56.9,2.3c-1.3-3.4-4.2-13-4.9-16.9
		C327,868.8,347.4,860.2,378.1,857z M284.6,515.2c-7.9,4-38,31.4-52.7,63c-9.5,20.2-17.8,51.5-17.9,65.6c0,0,24.5-51.6,36.2-74.6
		C262.4,545.6,285.7,515.3,284.6,515.2z M497.2,801.8c-4.2-16.3,44-36.3,42.3-40.6c-34.3,8.3-76,20.8-97.8,62.6
		c-10.6,20.3-4.2,48.1,4.3,62.6l39.4-24c4-2.4,9.3-3.7,14.6-3.7c0,0,0-3.5,1-6.9c4.2-12.7,34.6-32.3,60.4-41.8
		c35.7-13,69.8-9.6,69.8-9.6c10.1-11.7,25.9-32.3,25.9-32.3c-70.2-0.3-121.1,28.6-161.3,58.4C502.5,812.7,513.8,798.7,497.2,801.8z
		 M733.7,593.1c-6.1-5.2-18.4-16.5-24.1-22.2c-49.8-49.8-83.5-89-129.8-106.1c-32.6-12.1-79.4-26.6-133.3-23.8
		c-47.2,2.5-84.8,17.3-113.8,41.5c-40.1,33.4-62.1,83.3-87.3,130.3c-30.8,57.5-52.4,79.7-65.6,92.5c-9.2,8.8-24.5,22.8-25.4,36.7
		c4.8,1.6,24.7-10,40.8-21.8c12.5-9.2,25.4-20.1,36.8-30.3c27.9-24.9,49.5-71,59.6-85c10.3-14.3,32.8-58.9,60.6-86.4
		c13.4-13.1,48.8-29.7,76.5-31.8c14.1-1,34.6-1.5,53.4-0.6c19.2,0.9,65.7,6.6,98.9,26.6c33.2,20.2,46.2,36.7,65.2,55.1
		c30.5,29.5,74.1,64,120.9,52.1C761.8,613,743.8,601.5,733.7,593.1z M490.2,536.3c16-18.9,42.8-22.5,59.3-8.3
		c16.2,13.9,16.7,39.5,1.3,57.5c-15.3,18-41.1,22.5-58,9.3C475.4,581.6,474.1,555.2,490.2,536.3z M504.8,578.3
		c9,6.9,22.7,4.7,30.8-5c8.1-9.6,7.9-23.2-0.8-30.5c-8.8-7.6-23-5.7-31.5,4.4C495,557.2,495.6,571.2,504.8,578.3z M425.7,841
		c0,0-18.2,1.9-22,2.4c-16.7-7.9-22.8-33.2-32.3-53.1c-10.6-22.2-28.6-53.2-21.1-72.8c0.9-2.3,5.2-7.6,5.3-9.5
		c0.4-3.7-7.1-7.4-2.3-12.7c10.2,7.1,16.8,5.7,21.2,2.6c0,0-0.8,4.4-0.9,8.3c0,3.5,2.1,3.8,3.3,3.3c9.2-5,9.2-23.3,1.1-31.8
		c-6.3-1.3-15,2.8-25.5,0.6c-3.8-0.8-2.6-13.9-2.6-13.9c23.8-17.9,60.8-33.1,98.4-30.8c-1.4,7.9-18.7,22.6-15.1,27.5
		c0,0,18.4-4.3,24.7-6.9c6.3-2.6,12-11.4,22.3-11.7c5.7,6.1,5.6,26.2-0.9,29.4c-28-2-55.1-5.2-73.6,7.2c1,8.6,3.8,20.4,10.3,19.8
		c2.3-0.1,1.9-9.5,7.2-10.6c3.4-0.8,3.9-0.6,6.4-0.5c0.8,4.9,5.4,9.5,11,9.5c4.9,0,9.2-3.7,10.5-7.9c11.6-0.1,19.1,2.9,19.1,2.9
		c-5.3,7.7-8.6,7.2-18.9,8.5c-3.4,0.4-5.7,1.6-7.2,2.9c-1.9,1.6,0.5,2.5,2.3,2.5c11.9,0.3,27.9-0.8,31.9,4.4
		c6.9,8.8,0,17.9-15.1,25.7c-9.3,4.9-10.2,12.9-10.2,12.9c10.2,1.4,27.6-7.7,28,6.6C481.5,770,422.1,799.6,425.7,841z M381.6,756.8
		c3.3,9.2,22.6,10.9,31.2,7.7c3.8-1.4,2.8-8.5,2.5-9.3C413.8,749.7,390.6,762.4,381.6,756.8z M420.1,801
		c8.2-1.5,20.7-14.9,23.3-17.9c0,0,2.9-11.1,0.8-12.1c-19.4,6.1-38.2,12-63.1,8.2c0,0,2.3,7.1,13.2,9.1c14.1,2.4,32.7-4.8,36-5.2
		c-9.1,7.8-20.6,17-33.9,13.8c0,0-4.7,3.9,0.3,10c4.7,5.6,15.9,4.4,21.8,1.9C419.2,805.8,415.8,801.9,420.1,801z"/>
	<g>
		<path class="st0" d="M1078.8,835c-10.1,0-20.2-3.7-28-8.7l5.2-13.6c7.1,5,15.5,8.2,23.2,8.2c9.3,0,13.5-5.4,13.5-11.6
			s-2.6-10.1-16.8-16c-15.5-6.6-21.2-14.6-21.2-25.2c0-12.9,10.7-24.9,29.3-24.9c8.6,0,17.2,2.9,22.3,6.4l-4.9,13.4
			c-4.8-3.3-11.7-6.3-17.9-6.3c-9.3,0-13.8,5-13.8,11.1c0,5.9,4.4,9.5,15.4,14.4c17.7,7.7,22.7,14.9,22.7,26.5
			C1108.3,822.7,1097.2,835,1078.8,835z"/>
		<path class="st0" d="M1166.8,804.8c-2.9,0-5.9-0.3-8.8-0.4v29h-15.1v-88.2c7.9-1,15.3-1.5,22.6-1.5c24.5,0,37,13.4,37,30
			C1202.2,791.9,1189.5,804.8,1166.8,804.8z M1167.9,757.7c-3.4,0-6.8,0.3-10,0.8V791c3,0.3,5.8,0.5,8.5,0.5
			c13.8,0,20.1-7.2,20.1-17.3C1186.4,765.5,1180.3,757.7,1167.9,757.7z"/>
		<path class="st0" d="M1276.9,835c-25.7,0-44.7-19.6-44.7-45.9c0-26.5,19.7-46.1,45.4-46.1s44.7,19.6,44.7,46.1
			C1322.3,815.4,1302.7,835,1276.9,835z M1277.4,756.6c-17,0-28.8,13.9-28.8,32.4c0,18.4,11.7,32.4,28.8,32.4
			c16.9,0,28.6-14,28.6-32.4C1306.1,770.5,1294.2,756.6,1277.4,756.6z"/>
		<path class="st0" d="M1406.9,833.6l-19.4-32.1c-1.6,0.1-3,0.1-4.8,0.1c-2.9,0-5.9-0.1-8.8-0.3v32.2h-15.1v-88.2
			c7.1-0.9,14.5-1.5,23.5-1.5c25.2,0,36.5,12.2,36.5,28.1c0,11.6-6.3,20.9-17.4,25.7l23.3,35.8L1406.9,833.6L1406.9,833.6z
			 M1384,757.5c-3.7,0-7.2,0.1-10.2,0.8v30.4c2.8,0.4,5.8,0.5,8.7,0.5c13.2,0,19.9-6.2,19.9-16.4
			C1402.6,763.7,1395.8,757.5,1384,757.5z"/>
		<path class="st0" d="M1492.2,758.2v75.2H1477v-75.2h-28.3v-13.9h71.7v13.9H1492.2z"/>
		<path class="st0" d="M1574.2,835c-10.1,0-20.2-3.7-28-8.7l5.2-13.6c7.1,5,15.5,8.2,23.2,8.2c9.3,0,13.5-5.4,13.5-11.6
			s-2.6-10.1-16.8-16c-15.5-6.6-21.2-14.6-21.2-25.2c0-12.9,10.7-24.9,29.3-24.9c8.6,0,17.2,2.9,22.3,6.4l-4.9,13.4
			c-4.8-3.3-11.7-6.3-17.9-6.3c-9.3,0-13.8,5-13.8,11.1c0,5.9,4.4,9.5,15.4,14.4c17.7,7.7,22.7,14.9,22.7,26.5
			C1603.6,822.7,1592.6,835,1574.2,835z"/>
		<path class="st0" d="M1746.4,804.9c-3.8,4.8-7.7,9.3-11.6,13.5c3,2.6,6.4,5.6,10,8.3l-8.1,8.5c-3.7-3-7.6-6.1-10.9-9
			c-6.6,5-13.9,8.3-21.8,8.3c-12.5,0-23.7-7.2-23.7-20.2c0-8.6,6.6-15.9,16.3-20.3c-3.2-4.9-4.9-9.7-4.9-13.9
			c0-10.7,9.5-19.6,20.4-19.6c12.2,0,19.4,8.7,19.4,17.2c0,7.8-5,15.4-17.7,20.1c3.3,3.9,7.6,8.3,12.6,13c4.2-4,7.9-8.6,11.4-13.1
			L1746.4,804.9z M1702.4,802.6c-4.9,2-8.3,6.3-8.3,11.2c0,5.8,4.5,9.7,11.1,9.7c4.2,0,8.3-1.9,12.5-4.9
			C1711.7,813.1,1706.6,807.7,1702.4,802.6z M1712.1,771.2c-4.3,0-7.7,3.9-7.7,8.8c0,2.9,1.3,6.6,3.9,10.5
			c8.3-3.3,11.4-7.7,11.4-11.6C1719.7,774.6,1716.5,771.2,1712.1,771.2z"/>
		<path class="st0" d="M1871.5,835c-28.1,0-48.1-19.4-48.1-45.9c0-26.4,20.1-46.1,48.1-46.1c11.1,0,21.2,3.5,28.6,8.2L1895,764
			c-7.1-4-15.8-6.8-23.7-6.8c-19.6,0-31.5,13-31.5,31.8c0,18.7,12.2,31.7,31.8,31.7c7.9,0,17.2-2.8,24.4-7.1l4.7,12.9
			C1893.2,831.3,1882.6,835,1871.5,835z"/>
		<path class="st0" d="M1991.9,833.6l-8.6-20.4h-35.2l-8.6,20.4h-15.6l41.1-90.3h2.1l41,90.3H1991.9z M1965.6,771.2L1953,801h25.2
			L1965.6,771.2z"/>
		<path class="st0" d="M2058.4,835c-10.1,0-20.2-3.7-28-8.7l5.2-13.6c7.1,5,15.5,8.2,23.2,8.2c9.3,0,13.5-5.4,13.5-11.6
			s-2.6-10.1-16.8-16c-15.5-6.6-21.2-14.6-21.2-25.2c0-12.9,10.7-24.9,29.3-24.9c8.6,0,17.2,2.9,22.3,6.4l-4.9,13.4
			c-4.8-3.3-11.7-6.3-17.9-6.3c-9.3,0-13.8,5-13.8,11.1c0,5.9,4.4,9.5,15.4,14.4c17.7,7.7,22.7,14.9,22.7,26.5
			C2087.8,822.7,2076.8,835,2058.4,835z"/>
		<path class="st0" d="M2122.9,833.6v-89.1h15.1v89.1H2122.9z"/>
		<path class="st0" d="M2248.9,835.2l-55.8-58.8v57.2H2178v-90.3l2.4-0.5l55,58v-56.3h15.1V835L2248.9,835.2z"/>
		<path class="st0" d="M2331.4,835c-25.7,0-44.7-19.6-44.7-45.9c0-26.5,19.7-46.1,45.4-46.1c25.7,0,44.7,19.6,44.7,46.1
			C2376.9,815.4,2357.2,835,2331.4,835z M2331.9,756.6c-17,0-28.8,13.9-28.8,32.4c0,18.4,11.7,32.4,28.8,32.4
			c16.9,0,28.6-14,28.6-32.4C2360.6,770.5,2348.8,756.6,2331.9,756.6z"/>
	</g>
</g>
<g id="Laag_2">
</g>
</svg>
